<svg width="32" height="32" viewBox="0 0 32 32" fill="none" xmlns="http://www.w3.org/2000/svg">
<g clip-path="url(#clip0_492_1937)">
<path d="M0.380981 29.4372V7.61905H3.29007V22.1645H14.9264V10.5281H26.5628C28.1628 10.5281 29.5325 11.0978 30.6719 12.2372C31.8113 13.3766 32.381 14.7463 32.381 16.3463V29.4372H29.4719V25.0736H3.29007V29.4372H0.380981ZM9.10825 20.71C7.89613 20.71 6.86583 20.2857 6.01735 19.4372C5.16886 18.5887 4.74462 17.5584 4.74462 16.3463C4.74462 15.1342 5.16886 14.1039 6.01735 13.2554C6.86583 12.4069 7.89613 11.9827 9.10825 11.9827C10.3204 11.9827 11.3507 12.4069 12.1992 13.2554C13.0476 14.1039 13.4719 15.1342 13.4719 16.3463C13.4719 17.5584 13.0476 18.5887 12.1992 19.4372C11.3507 20.2857 10.3204 20.71 9.10825 20.71ZM17.8355 22.1645H29.4719V16.3463C29.4719 15.5463 29.1868 14.8612 28.6166 14.291C28.0464 13.7209 27.3618 13.4363 26.5628 13.4372H17.8355V22.1645ZM9.10825 17.8009C9.52038 17.8009 9.86607 17.6612 10.1453 17.382C10.4246 17.1027 10.5638 16.7575 10.5628 16.3463C10.5628 15.9342 10.4232 15.5885 10.1439 15.3092C9.86462 15.03 9.51941 14.8908 9.10825 14.8918C8.69613 14.8918 8.35044 15.0314 8.07116 15.3107C7.79189 15.59 7.65274 15.9352 7.65371 16.3463C7.65371 16.7584 7.79335 17.1041 8.07262 17.3834C8.35189 17.6627 8.6971 17.8018 9.10825 17.8009ZM9.10825 17.8009C8.69613 17.8009 8.35044 17.6612 8.07116 17.382C7.79189 17.1027 7.65274 16.7575 7.65371 16.3463C7.65371 15.9342 7.79335 15.5885 8.07262 15.3092C8.35189 15.03 8.6971 14.8908 9.10825 14.8918C9.52038 14.8918 9.86607 15.0314 10.1453 15.3107C10.4246 15.59 10.5638 15.9352 10.5628 16.3463C10.5628 16.7584 10.4232 17.1041 10.1439 17.3834C9.86462 17.6627 9.51941 17.8018 9.10825 17.8009ZM17.8355 13.4372H26.5628C27.3628 13.4372 28.0479 13.7223 28.6181 14.2925C29.1883 14.8627 29.4729 15.5473 29.4719 16.3463V22.1645H17.8355V13.4372Z" fill="currentColor"/>
</g>
<defs>
<clipPath id="clip0_492_1937">
<rect width="32" height="32" fill="white"/>
</clipPath>
</defs>
</svg>
