<svg width="23" height="25" viewBox="0 0 23 25" fill="none" xmlns="http://www.w3.org/2000/svg">
<path d="M13.0377 0.565711C12.5813 0.199554 12.0137 0 11.4286 0C10.8434 0 10.2758 0.199554 9.81943 0.565711L0.962286 7.67085C0.661958 7.9118 0.419572 8.21712 0.25302 8.56426C0.0864678 8.91141 5.36294e-07 9.29153 0 9.67657V22.568C0 23.25 0.270918 23.904 0.753154 24.3863C1.23539 24.8685 1.88944 25.1394 2.57143 25.1394H5.42857C6.11056 25.1394 6.76461 24.8685 7.24685 24.3863C7.72908 23.904 8 23.25 8 22.568V16.2823C8 15.4937 8.64 14.8537 9.42857 14.8537H13.4286C14.2171 14.8537 14.8571 15.4937 14.8571 16.2823V22.568C14.8571 23.25 15.1281 23.904 15.6103 24.3863C16.0925 24.8685 16.7466 25.1394 17.4286 25.1394H20.2857C20.9677 25.1394 21.6218 24.8685 22.104 24.3863C22.5862 23.904 22.8571 23.25 22.8571 22.568V9.67657C22.8571 9.29153 22.7707 8.91141 22.6041 8.56426C22.4376 8.21712 22.1952 7.9118 21.8949 7.67085L13.0377 0.565711Z" fill="currentColor"/>
</svg>
