<svg width="24" height="28" viewBox="0 0 24 28" fill="none" xmlns="http://www.w3.org/2000/svg">
  <path
    d="M12.6316 19.6842H17.6842V15.8947L24 21.5789L17.6842 27.2631V23.4737H12.6316V19.6842ZM11.3684 9.57892H18.3158L11.3684 2.63155V9.57892ZM2.52632 0.736816H12.6316L20.2105 8.31576V13.7979C19.4147 13.52 18.5684 13.3684 17.6842 13.3684C15.6741 13.3684 13.7464 14.1669 12.3251 15.5882C10.9038 17.0095 10.1053 18.9373 10.1053 20.9473C10.1053 22.8926 10.8379 24.661 12.0379 26H2.52632C1.8563 26 1.21372 25.7338 0.739941 25.26C0.266165 24.7863 0 24.1437 0 23.4737V3.26313C0 2.59311 0.266165 1.95053 0.739941 1.47676C1.21372 1.00298 1.8563 0.736816 2.52632 0.736816Z"
    fill="currentColor" />
</svg>