<svg width="54" height="40" viewBox="0 0 54 40" fill="none" xmlns="http://www.w3.org/2000/svg">
<path d="M15.498 0C9.96055 1.781 5.02286 5.14635 2.66199 9.65156C4.17709 9.54953 3.84978 11.2809 3.84978 13.013H2.33637C2.36993 15.2585 2.83822 15.5378 2.83822 15.5378C3.82744 15.5378 3.82744 17.3338 3.82744 19.1297H1.93711L0.75 37.3135C0.75 37.6224 1.14331 37.9045 1.85641 38.1602C1.8811 35.2825 2.02107 32.8237 2.83822 32.8237C3.70319 32.8237 3.81184 35.5706 3.82542 38.662C4.58813 38.8085 5.47723 38.9428 6.46813 39.0653C6.48755 35.9927 6.6365 33.2727 7.7841 33.2727C8.96583 33.2727 9.08806 36.1583 9.10075 39.3418C10.1371 39.4348 11.2387 39.5187 12.4026 39.5921C12.4168 36.3984 12.5563 33.4972 13.9389 33.4972C15.345 33.4972 15.465 36.4993 15.4755 39.7573C16.4078 39.7998 17.3629 39.8372 18.3378 39.8689C18.3526 36.6546 18.5053 33.7216 20.0936 33.7216C21.6967 33.7216 22.0303 34.6196 22.0428 37.8683C25.141 40.1354 24.7383 39.4791 25.152 39.9991C25.1649 36.7344 25.3167 33.7216 27.1277 33.7216C28.9389 33.7216 29.0906 36.735 29.1035 40C30.2119 39.9924 31.3145 39.9782 32.4057 39.9579C32.4182 36.7091 32.5588 33.7216 34.1618 33.7216C35.7501 33.7216 35.9028 36.6543 35.9177 39.8682C36.6882 39.8436 37.4585 39.815 38.2286 39.7825L34.3563 31.1092L30.9331 30.818L28.1783 18.1308L24.2189 18.4633L22.757 12.5488L20.9669 12.2878L15.498 0ZM13.9612 5.15578C15.4999 5.15578 15.4999 6.95172 15.4999 8.74765L12.4225 9.64561C12.4225 7.84968 12.4225 5.15578 13.9612 5.15578ZM7.80644 6.95172C9.12533 6.95172 9.12533 8.74765 9.12533 10.5436L6.48755 10.9926C6.48755 9.19663 6.48755 6.95172 7.80644 6.95172ZM20.0936 13.7419C21.8522 13.7419 21.8522 15.5378 21.8522 17.3338L18.3352 17.5583C18.3352 15.7623 18.3352 13.7419 20.0936 13.7419ZM13.9389 14.1909C15.4775 14.1909 15.4775 15.9868 15.4775 17.7828L12.4002 18.0072C12.4002 16.2113 12.4002 14.1909 13.9389 14.1909ZM7.7841 14.8644C9.10299 14.8644 9.10299 16.6603 9.10299 18.4562L6.46522 18.9052C6.46522 17.1093 6.46522 14.8644 7.7841 14.8644ZM30.1573 17.9115L32.4035 28.2577C32.4035 25.5897 32.4199 22.9461 34.1618 22.9461C35.9203 22.9461 35.9203 25.64 35.9203 28.3339C35.759 28.9753 35.7478 29.0261 35.6756 29.1941L38.8951 36.4052C39.0536 34.6996 39.4275 33.4972 40.3166 33.4972C41.699 33.4972 41.8387 36.3983 41.8529 39.592C42.935 39.5236 43.9621 39.4461 44.9349 39.3609C44.9472 36.1697 45.0675 33.2727 46.2516 33.2727C47.4025 33.2727 47.5491 36.0081 47.5677 39.0915C48.7445 38.9501 49.7866 38.7929 50.6503 38.6188C50.6648 35.5453 50.7762 32.8237 51.6371 32.8237C52.4463 32.8237 52.5913 35.2353 52.6181 38.0764C53.1915 37.8432 53.5055 37.5891 53.5055 37.3135L52.4938 21.8162C51.2721 20.6936 49.5651 19.922 47.5392 19.3814L45.3063 20.953L41.9098 20.6378L39.5863 18.2646C36.5471 18.0719 33.3137 18.0195 30.1573 17.9115ZM20.0936 22.9461C21.8522 22.9461 21.8522 25.64 21.8522 28.3339H18.3352C18.3352 25.64 18.3352 22.9461 20.0936 22.9461ZM27.1277 22.9461C29.1061 22.9461 29.1061 25.64 29.1061 28.3339H25.1494C25.1494 25.64 25.1494 22.9461 27.1277 22.9461ZM13.9389 23.1705C15.4775 23.1705 15.4775 25.8644 15.4775 28.5583H12.4002C12.4002 25.8644 12.4002 23.1705 13.9389 23.1705ZM40.3166 23.1705C41.8553 23.1705 41.8553 25.8644 41.8553 28.5583H38.778C38.778 25.8644 38.778 23.1705 40.3166 23.1705ZM7.7841 23.395C9.10299 23.395 9.10299 25.8644 9.10299 28.5583L6.46522 28.7828C6.46522 26.0889 6.46522 23.395 7.7841 23.395ZM46.2516 23.395C47.5705 23.395 47.5705 26.0889 47.5705 28.7828L44.9327 28.5583C44.9327 25.8644 44.9327 23.395 46.2516 23.395ZM3.28731 23.6195C4.27642 23.6195 4.27642 26.0889 4.27642 28.7828L2.29809 29.0073C2.29809 26.3134 2.29821 23.6195 3.28731 23.6195ZM51.1882 23.6195C52.1773 23.6195 52.1773 26.3134 52.1773 29.0073L50.199 28.7828C50.199 26.0889 50.199 23.6195 51.1881 23.6195H51.1882Z" fill="currentColor"/>
</svg>
