<svg width="32" height="32" viewBox="0 0 32 32" fill="none" xmlns="http://www.w3.org/2000/svg">
<path d="M5.33331 24.0953V11.4286C5.33331 10.2508 5.63909 9.3117 6.25065 8.61126C6.8622 7.91081 7.66754 7.37748 8.66665 7.01126C9.66665 6.64503 10.8058 6.40059 12.084 6.27792C13.3622 6.15526 14.6675 6.09437 16 6.09525C17.4666 6.09525 18.8502 6.15659 20.1506 6.27925C21.4511 6.40192 22.5844 6.64637 23.5506 7.01259C24.5169 7.37881 25.2778 7.91214 25.8333 8.61259C26.3889 9.31303 26.6666 10.2517 26.6666 11.4286V24.0953C26.6666 25.4064 26.2169 26.5121 25.3173 27.4126C24.4178 28.313 23.312 28.7628 22 28.7619L24 30.7619V31.4286H21.3333L18.6666 28.7619H13.3333L10.6666 31.4286H7.99998V30.7619L9.99998 28.7619C8.68887 28.7619 7.58309 28.3121 6.68265 27.4126C5.7822 26.513 5.33243 25.4073 5.33331 24.0953ZM7.99998 16.7619H14.6666V12.7619H7.99998V16.7619ZM17.3333 16.7619H24V12.7619H17.3333V16.7619ZM11.3333 24.7619C11.9111 24.7619 12.3889 24.573 12.7666 24.1953C13.1444 23.8175 13.3333 23.3397 13.3333 22.7619C13.3333 22.1841 13.1444 21.7064 12.7666 21.3286C12.3889 20.9508 11.9111 20.7619 11.3333 20.7619C10.7555 20.7619 10.2778 20.9508 9.89998 21.3286C9.5222 21.7064 9.33331 22.1841 9.33331 22.7619C9.33331 23.3397 9.5222 23.8175 9.89998 24.1953C10.2778 24.573 10.7555 24.7619 11.3333 24.7619ZM20.6666 24.7619C21.2444 24.7619 21.7222 24.573 22.1 24.1953C22.4778 23.8175 22.6666 23.3397 22.6666 22.7619C22.6666 22.1841 22.4778 21.7064 22.1 21.3286C21.7222 20.9508 21.2444 20.7619 20.6666 20.7619C20.0889 20.7619 19.6111 20.9508 19.2333 21.3286C18.8555 21.7064 18.6666 22.1841 18.6666 22.7619C18.6666 23.3397 18.8555 23.8175 19.2333 24.1953C19.6111 24.573 20.0889 24.7619 20.6666 24.7619Z" fill="currentColor"/>
</svg>
