<svg width="32" height="32" viewBox="0 0 32 32" fill="none" xmlns="http://www.w3.org/2000/svg">
<path d="M19.792 26.6667H8.66669C6.82802 26.6667 5.33335 25.172 5.33335 23.3333C5.33335 21.4947 6.82802 20 8.66669 20H18C20.5734 20 22.6667 17.9067 22.6667 15.3333C22.6667 12.76 20.5734 10.6667 18 10.6667H11.5187C11.029 11.6265 10.4227 12.5222 9.71335 13.3333H18C19.1027 13.3333 20 14.2307 20 15.3333C20 16.436 19.1027 17.3333 18 17.3333H8.66669C5.35869 17.3333 2.66669 20.0253 2.66669 23.3333C2.66669 26.6413 5.35869 29.3333 8.66669 29.3333H21.4574C20.8031 28.5103 20.2444 27.6157 19.792 26.6667ZM6.66669 2.66666C4.46135 2.66666 2.66669 4.46132 2.66669 6.66666C2.66669 10.9173 6.66669 13.3333 6.66669 13.3333C6.66669 13.3333 10.6667 10.916 10.6667 6.66666C10.6667 4.46132 8.87202 2.66666 6.66669 2.66666ZM6.66669 8.66666C6.40396 8.66657 6.14381 8.61473 5.90112 8.51411C5.65842 8.41349 5.43791 8.26604 5.2522 8.0802C5.06648 7.89436 4.91919 7.67376 4.81872 7.431C4.71826 7.18823 4.6666 6.92805 4.66669 6.66532C4.66677 6.40259 4.71861 6.14245 4.81923 5.89975C4.91986 5.65705 5.0673 5.43655 5.25314 5.25083C5.43898 5.06512 5.65958 4.91782 5.90235 4.81736C6.14511 4.7169 6.40529 4.66524 6.66802 4.66532C7.19863 4.6655 7.70744 4.87645 8.08251 5.25178C8.45758 5.6271 8.6682 6.13605 8.66802 6.66666C8.66784 7.19727 8.45689 7.70607 8.08157 8.08115C7.70624 8.45622 7.1973 8.66683 6.66669 8.66666Z" fill="currentColor"/>
<path d="M25.3333 18.6667C23.128 18.6667 21.3333 20.4613 21.3333 22.6667C21.3333 26.9173 25.3333 29.3333 25.3333 29.3333C25.3333 29.3333 29.3333 26.916 29.3333 22.6667C29.3333 20.4613 27.5386 18.6667 25.3333 18.6667ZM25.3333 24.6667C25.0706 24.6666 24.8104 24.6147 24.5677 24.5141C24.325 24.4135 24.1045 24.266 23.9188 24.0802C23.7331 23.8944 23.5858 23.6738 23.4853 23.431C23.3849 23.1882 23.3332 22.9281 23.3333 22.6653C23.3334 22.4026 23.3852 22.1425 23.4859 21.8998C23.5865 21.6571 23.7339 21.4366 23.9198 21.2508C24.1056 21.0651 24.3262 20.9178 24.569 20.8174C24.8117 20.7169 25.0719 20.6652 25.3346 20.6653C25.8653 20.6655 26.3741 20.8765 26.7491 21.2518C27.1242 21.6271 27.3348 22.136 27.3346 22.6667C27.3345 23.1973 27.1235 23.7061 26.7482 24.0811C26.3729 24.4562 25.8639 24.6668 25.3333 24.6667Z" fill="currentColor"/>
</svg>
