<svg id="94c669e1-901f-4b41-af43-24f63540bbd5" data-name="Layer 1" xmlns="http://www.w3.org/2000/svg" viewBox="0 0 797.55 514.98"><title>SVG 2</title><path d="M287.08,411.18v36H230.56V598.6H188.37V447.15H131.84v-36Z" transform="translate(-100.75 -197.78)" fill="#fff"/><path d="M385,492q-5.42-1.35-12.71-2.84a78.71,78.71,0,0,0-15.69-1.49,73.13,73.13,0,0,0-9.06.68,53.21,53.21,0,0,0-8,1.49V598.6h-40.3V463.92a239.42,239.42,0,0,1,25.56-7.17,146.8,146.8,0,0,1,32.86-3.38q3.24,0,7.84.4c3.06.27,6.13.64,9.19,1.08s6.13,1,9.2,1.63a43.29,43.29,0,0,1,7.84,2.3Z" transform="translate(-100.75 -197.78)" fill="#fff"/><path d="M637.44,527.47a104.05,104.05,0,0,1-4.06,30,67.41,67.41,0,0,1-11.9,23.26A53.68,53.68,0,0,1,602,595.89q-11.62,5.42-26.77,5.41a72.32,72.32,0,0,1-15.69-1.62,74.62,74.62,0,0,1-14.06-4.6v53.55h-40.3V461.21q5.42-1.62,12.44-3.11t14.74-2.57q7.71-1.08,15.69-1.76t15.28-.67q17.56,0,31.37,5.27A64.8,64.8,0,0,1,618,473.24a63.88,63.88,0,0,1,14.46,23.4A89.77,89.77,0,0,1,637.44,527.47Zm-41.11,1.08q0-18.66-8.38-29.88t-24.88-11.23q-5.42,0-10,.41t-7.57.95v72.74a34.64,34.64,0,0,0,9.87,4.06,47.54,47.54,0,0,0,12.3,1.62Q596.33,567.22,596.33,528.55Z" transform="translate(-100.75 -197.78)" fill="#fff"/><path d="M701.77,569.66q11.09,0,15.68-2.17t4.6-8.38q0-4.86-5.95-8.52T698,542.34a183.23,183.23,0,0,1-17.17-7.3A50.34,50.34,0,0,1,667.69,526a36.53,36.53,0,0,1-8.38-12.57,46.44,46.44,0,0,1-3-17.58q0-20,14.88-31.64t40.84-11.63a132.07,132.07,0,0,1,24.88,2.29,116.89,116.89,0,0,1,18.93,5l-7,31.37a152.23,152.23,0,0,0-15.28-4.33A83.3,83.3,0,0,0,715,485q-18.93,0-18.93,10.55a10.88,10.88,0,0,0,.81,4.32,9.25,9.25,0,0,0,3.24,3.66,46.21,46.21,0,0,0,6.63,3.8q4.2,2,10.68,4.49a166.64,166.64,0,0,1,21.91,9.68A52.49,52.49,0,0,1,753,531.82a31.86,31.86,0,0,1,7,12.28,54.49,54.49,0,0,1,2,15.64q0,21.06-15.82,31.85T701.5,602.38q-18.93,0-31.51-3.24t-17.44-5.41L659.31,561a131.34,131.34,0,0,0,21.09,6.36A102.79,102.79,0,0,0,701.77,569.66Z" transform="translate(-100.75 -197.78)" fill="#fff"/><path d="M840.36,577.23q0,11.91-7.71,18.39a26.69,26.69,0,0,1-34.89,0q-7.69-6.5-7.7-18.39t7.7-18.39a26.69,26.69,0,0,1,34.89,0Q840.36,565.33,840.36,577.23Zm-3.52-117.64q0,21.9-1.62,40.83t-4.33,38.41H800.06q-2.7-19.47-4.46-38.41t-1.76-40.83V411.18h43Z" transform="translate(-100.75 -197.78)" fill="#fff"/><path d="M425.69,647.07c-.85-1.13-3.11-11.9-8.21-15.58,0,0,15,7.65,19,18.41S467,653,467,653s8.5-17.85,21-17.56c0,0-17.56,12.46-8.21,25.49,0,0-4.82-.29-3.4-2s1.7-9.91,26.06-7.64c0,0-17.85,2.55-14.45,11.32s-53,16.15-55.79,12.18S425.69,647.07,425.69,647.07Z" transform="translate(-100.75 -197.78)" fill="#fff"/><path d="M447.48,624.71c.85-1.13,3.11-11.89,8.21-15.57,0,0-15,7.64-19,18.41s-30.59,3.11-30.59,3.11-8.5-17.84-21-17.56c0,0,17.56,12.46,8.22,25.49,0,0,4.81-.28,3.39-2s-1.7-9.91-26-7.65c0,0,17.84,2.55,14.44,11.33s53,16.14,55.8,12.18S447.48,624.71,447.48,624.71Z" transform="translate(-100.75 -197.78)" fill="#fff"/><path d="M441.84,276.27,444,295.68c-2.77,3.42-5.52,7-8.19,10.79v-30.2c0-68.54,75.79-108.15,141.51-51.27l-32.13-9.63,9.08,15.72-22.13-11.51,7.08,12.28-27-9.27,6.62,16.23-26.49-12.61L499,243.67,479.77,237V253.3l-17.46.6v10.84l-17.46-3.62,5.44,15.15Z" transform="translate(-100.75 -197.78)" fill="#fff"/><path d="M294.31,225l32.13-9.63-9.08,15.72,22.13-11.51-7.08,12.28,26.95-9.27-6.62,16.23,26.49-12.61-6.63,17.46L391.87,237V253.3l17.46.6v10.84l17.46-3.62-5.44,15.15h8.45l-2.17,19.41c2.77,3.42,5.52,7,8.19,10.79v-30.2C435.82,207.73,360,168.12,294.31,225Z" transform="translate(-100.75 -197.78)" fill="#fff"/><path d="M447.64,336.48l-11.82-17.15V305.68c33.11-15.51,61.7-22.06,86.29-22,83.49.12,120.67,76.3,132.45,135.22l-21.67-32.92-.8,32.92-21.67-49.77-3.21,36.12-21.67-53.94-12.86,34.67-15.24-53L545.2,376.31l-19.87-57.8-5.63,57L498,316.11l-6.4,53.8-24.9-50.58,5.63,53Z" transform="translate(-100.75 -197.78)" fill="#fff"/><path d="M654.56,276l-28.9-15.36,15.27,29.81L612,260.62l1.59,41-18.45-37.43v31l-24.9-31,3.23,19.41-32.92-19.41V280.8L522.11,272v11.68c-24.59,0-53.18,6.53-86.29,22V294.43c2.67-3.78,5.42-7.37,8.19-10.79,23.5-29.14,49.73-45.71,76-52.76C571.38,217.08,622.89,239.72,654.56,276Z" transform="translate(-100.75 -197.78)" fill="#fff"/><path d="M424,336.48l11.82-17.15V305.68c-33.11-15.51-61.7-22.06-86.29-22-83.49.12-120.67,76.3-132.45,135.22l21.67-32.92.8,32.92,21.67-49.77,3.21,36.12,21.67-53.94L299,385.94l15.24-53,12.24,43.35,19.87-57.8,5.63,57,21.68-59.41,6.4,53.8,24.9-50.58-5.63,53Z" transform="translate(-100.75 -197.78)" fill="#fff"/><path d="M447.64,336.48l-11.82-17.15L424,336.48,404.92,676.55s11,7.22,30.9,7.22,30.9-7.22,30.9-7.22Z" transform="translate(-100.75 -197.78)" fill="#fff"/><path d="M217.08,276,246,260.62l-15.27,29.81,28.9-29.81-1.59,41,18.45-37.43v31l24.9-31-3.23,19.41,32.92-19.41V280.8L349.53,272v11.68c24.59,0,53.18,6.53,86.29,22V294.43c-2.67-3.78-5.42-7.37-8.19-10.79-12.79-15.87-26.42-28-40.38-36.92a135.38,135.38,0,0,0-18.4-9.8,120.93,120.93,0,0,0-17.22-6C300.26,217.08,248.75,239.72,217.08,276Z" transform="translate(-100.75 -197.78)" fill="#fff"/><path d="M100.75,712.77S315.2,587,538.22,676c0,0,116.51-51.55,278.77,36.82Z" transform="translate(-100.75 -197.78)" fill="#fff"/><path d="M775.39,634c14.62,8.74,29.41,17.51,45.46,23.39,12.88,4.72,32.22,10.72,45.27,3.63,8-4.36,12.32-14.22,11.13-23.29-.65-4.88-2.85-9.74-6.82-12.65-7.67-5.62-21.31-2.91-26.78,4.75-2.58,3.64-3.2,8.86-.7,12.55,3.34,4.93,10.29,5.38,16.25,5.34-6.81,2.35-14.59,3.23-21,0-18.07-9-17.22-35.77.22-44.47,6.38-3.19,13.64-4.17,20.77-4.4,36.83-1.15,52.8,51.44,25.25,73.86-16,13-39.89,10.66-58.1,4.28a92,92,0,0,1-26.57-14.64,98.06,98.06,0,0,1-13.52-13q-3.19-3.74-6-7.77c-1.24-1.76-3.09-6.54-4.84-7.59Z" transform="translate(-100.75 -197.78)" fill="#fff"/><path d="M876.41,684S837.26,711.13,788,661.38s-80.78-60.92-111.58-41c0,0,23.65-6.41,62.21,24.62,16.41,13.21,31.47,28,48.08,41,12.2,9.51,27,19.74,43.28,18.69,10.13-.65,19.85-4.62,28.81-9.15C865.34,692.23,870.52,688.05,876.41,684Z" transform="translate(-100.75 -197.78)" fill="#fff"/><path d="M725.43,645.31s-31.81-30.42-57.82-14.46-43.1,25-50.77,18.42c0,0,9.07,12.36,45-4.16S725.43,645.31,725.43,645.31Z" transform="translate(-100.75 -197.78)" fill="#fff"/></svg>