<svg width="34" height="35" viewBox="0 0 34 35" fill="none" xmlns="http://www.w3.org/2000/svg">
<g id="carbon:user-avatar">
<path id="Vector" d="M17 8.87302C15.9493 8.87302 14.9222 9.18954 14.0485 9.78255C13.1749 10.3756 12.494 11.2184 12.0919 12.2046C11.6898 13.1907 11.5846 14.2758 11.7896 15.3227C11.9946 16.3696 12.5005 17.3312 13.2435 18.086C13.9865 18.8407 14.9331 19.3547 15.9636 19.563C16.9941 19.7712 18.0623 19.6643 19.033 19.2559C20.0037 18.8474 20.8334 18.1557 21.4172 17.2682C22.0009 16.3807 22.3125 15.3372 22.3125 14.2698C22.3125 12.8385 21.7528 11.4658 20.7565 10.4537C19.7602 9.44161 18.409 8.87302 17 8.87302ZM17 17.5079C16.3696 17.5079 15.7533 17.318 15.2291 16.9622C14.7049 16.6064 14.2964 16.1007 14.0551 15.509C13.8139 14.9173 13.7508 14.2662 13.8737 13.6381C13.9967 13.01 14.3003 12.433 14.7461 11.9802C15.1919 11.5273 15.7598 11.2189 16.3782 11.094C16.9965 10.969 17.6374 11.0331 18.2198 11.2782C18.8022 11.5233 19.3001 11.9383 19.6503 12.4709C20.0006 13.0034 20.1875 13.6294 20.1875 14.2698C20.1867 15.1284 19.8506 15.9515 19.253 16.5586C18.6554 17.1656 17.8451 17.5071 17 17.5079Z" fill="#F5F5F5"/>
<path id="Vector_2" d="M17 2.39682C14.058 2.39682 11.1821 3.28307 8.7359 4.9435C6.28972 6.60393 4.38315 8.96396 3.2573 11.7252C2.13145 14.4864 1.83687 17.5247 2.41083 20.456C2.98478 23.3872 4.40149 26.0798 6.48179 28.1931C8.5621 30.3064 11.2126 31.7456 14.098 32.3287C16.9835 32.9117 19.9744 32.6125 22.6924 31.4688C25.4105 30.3251 27.7336 28.3882 29.3681 25.9032C31.0026 23.4182 31.875 20.4966 31.875 17.5079C31.8705 13.5016 30.3019 9.6607 27.5132 6.82781C24.7246 3.99492 20.9437 2.40139 17 2.39682ZM10.625 28.7085V27.2222C10.6258 26.3637 10.9619 25.5406 11.5595 24.9335C12.1571 24.3264 12.9674 23.985 13.8125 23.9841H20.1875C21.0326 23.985 21.8429 24.3264 22.4405 24.9335C23.0381 25.5406 23.3742 26.3637 23.375 27.2222V28.7085C21.4404 29.8561 19.2403 30.4608 17 30.4608C14.7597 30.4608 12.5596 29.8561 10.625 28.7085ZM25.4915 27.1423C25.4703 25.7266 24.9025 24.3759 23.9104 23.3814C22.9183 22.3869 21.5813 21.8281 20.1875 21.8254H13.8125C12.4187 21.8281 11.0817 22.3869 10.0896 23.3814C9.09749 24.3759 8.52968 25.7266 8.50851 27.1423C6.58173 25.3946 5.22297 23.0935 4.61214 20.5438C4.00132 17.9941 4.16724 15.3161 5.08793 12.8643C6.00863 10.4126 7.64068 8.30275 9.76796 6.81419C11.8952 5.32564 14.4174 4.52859 17.0005 4.52859C19.5836 4.52859 22.1058 5.32564 24.2331 6.81419C26.3604 8.30275 27.9924 10.4126 28.9131 12.8643C29.8338 15.3161 29.9998 17.9941 29.3889 20.5438C28.7781 23.0935 27.4183 25.3946 25.4915 27.1423Z" fill="#F5F5F5"/>
</g>
</svg>
